<?xml version="1.0" encoding="UTF-8" standalone="no"?><!DOCTYPE svg PUBLIC "-//W3C//DTD SVG 1.1//EN" "http://www.w3.org/Graphics/SVG/1.1/DTD/svg11.dtd"><svg width="100%" height="100%" viewBox="0 0 175 175" version="1.1" xmlns="http://www.w3.org/2000/svg" xmlns:xlink="http://www.w3.org/1999/xlink" xml:space="preserve" xmlns:serif="http://www.serif.com/" style="fill-rule:evenodd;clip-rule:evenodd;stroke-linejoin:round;stroke-miterlimit:2;"><path d="M166.439,41.025c3.484,-0 6.333,2.315 6.334,5.145l0,84.473c0,2.83 -2.85,5.145 -6.332,5.145l-56.044,-0c-3.484,-0 -8.359,1.646 -10.829,3.652l-20.581,16.72c-2.343,1.903 -4.242,1.389 -4.433,-0.977c-0.063,-0.155 -0.063,-0.309 -0.063,-0.515l-0,-13.736c-0,-2.829 -2.849,-5.144 -6.333,-5.144l-60.681,-0c-3.484,-0 -6.333,-2.315 -6.333,-5.145l-0,-84.473c-0,-2.83 2.849,-5.145 6.333,-5.145l158.962,-0Z" style="fill-rule:nonzero;"/><path d="M166.439,39.925l-158.962,-0c-4.145,-0 -7.433,2.878 -7.433,6.245l-0,84.473c-0,3.367 3.288,6.245 7.433,6.245l60.681,-0c2.824,-0 5.233,1.751 5.233,4.044l-0,13.736c-0,0.291 0.018,0.522 0.08,0.743c0.138,1.312 0.723,2.182 1.495,2.635c1.093,0.641 2.824,0.504 4.714,-1.032c0,-0 20.582,-16.72 20.582,-16.72c2.311,-1.877 6.876,-3.406 10.135,-3.406l56.044,-0c4.143,-0 7.432,-2.878 7.432,-6.245l0,-84.474c-0.001,-3.366 -3.289,-6.244 -7.434,-6.244Zm0,1.1c3.484,-0 6.333,2.315 6.334,5.145l0,84.473c0,2.83 -2.85,5.145 -6.332,5.145l-56.044,-0c-3.484,-0 -8.359,1.646 -10.829,3.652l-20.581,16.72c-2.343,1.903 -4.242,1.389 -4.433,-0.977c-0.063,-0.155 -0.063,-0.309 -0.063,-0.515l-0,-13.736c-0,-2.829 -2.849,-5.144 -6.333,-5.144l-60.681,-0c-3.484,-0 -6.333,-2.315 -6.333,-5.145l-0,-84.473c-0,-2.83 2.849,-5.145 6.333,-5.145l158.962,-0Z" style="fill:#ede9e9;"/></svg>