<?xml version="1.0" encoding="UTF-8" standalone="no"?><!DOCTYPE svg PUBLIC "-//W3C//DTD SVG 1.1//EN" "http://www.w3.org/Graphics/SVG/1.1/DTD/svg11.dtd"><svg width="100%" height="100%" viewBox="0 0 120 60" version="1.1" xmlns="http://www.w3.org/2000/svg" xmlns:xlink="http://www.w3.org/1999/xlink" xml:space="preserve" xmlns:serif="http://www.serif.com/" style="fill-rule:evenodd;clip-rule:evenodd;stroke-linejoin:round;stroke-miterlimit:2;"><path d="M114.422,0.67c2.395,-0 4.353,1.167 4.354,2.592l-0,42.571c-0,1.426 -1.959,2.593 -4.353,2.593l-44.884,-0c-2.394,-0 -3.148,0.977 -4.015,1.84c-1.752,1.746 -4.961,8.633 -6.498,8.633c-1.538,-0 -3.894,-6.135 -5.543,-7.881c-1.006,-1.065 -1.958,-2.592 -4.352,-2.592l-43.967,-0c-2.394,-0 -4.352,-1.167 -4.352,-2.593l-0,-42.571c-0,-1.425 1.958,-2.592 4.352,-2.592l109.258,-0Z" style="fill:#ede9e9;fill-rule:nonzero;"/><path d="M114.422,-0.43l-109.258,-0c-1.724,-0 -3.25,0.537 -4.203,1.31c-0.816,0.661 -1.249,1.503 -1.249,2.382l-0,42.571c-0,0.879 0.433,1.721 1.249,2.383c0.953,0.773 2.479,1.31 4.203,1.31c0,-0 43.967,-0 43.967,-0c1.987,-0 2.718,1.364 3.553,2.248c1.129,1.195 2.578,4.506 3.873,6.378c0.418,0.604 0.832,1.079 1.21,1.371c0.435,0.335 0.868,0.476 1.259,0.476c0.314,-0 0.669,-0.095 1.039,-0.328c0.463,-0.291 1.019,-0.874 1.595,-1.652c1.551,-2.094 3.437,-5.775 4.641,-6.973c0.702,-0.7 1.299,-1.52 3.238,-1.52c0,-0 44.884,-0 44.884,-0c1.724,-0 3.25,-0.537 4.203,-1.31c0.816,-0.662 1.25,-1.504 1.25,-2.383l-0,-42.571c-0.001,-0.879 -0.435,-1.721 -1.25,-2.382c-0.953,-0.773 -2.479,-1.31 -4.204,-1.31Zm0,1.1c2.395,-0 4.353,1.167 4.354,2.592l-0,42.571c-0,1.426 -1.959,2.593 -4.353,2.593l-44.884,-0c-2.394,-0 -3.148,0.977 -4.015,1.84c-1.752,1.746 -4.961,8.633 -6.498,8.633c-1.538,-0 -3.894,-6.135 -5.543,-7.881c-1.006,-1.065 -1.958,-2.592 -4.352,-2.592l-43.967,-0c-2.394,-0 -4.352,-1.167 -4.352,-2.593l-0,-42.571c-0,-1.425 1.958,-2.592 4.352,-2.592l109.258,-0Z" style="fill:#ede9e9;fill-opacity:0;"/></svg>