<?xml version="1.0" encoding="UTF-8" standalone="no"?><!DOCTYPE svg PUBLIC "-//W3C//DTD SVG 1.1//EN" "http://www.w3.org/Graphics/SVG/1.1/DTD/svg11.dtd"><svg width="100%" height="100%" viewBox="0 0 32 32" version="1.1" xmlns="http://www.w3.org/2000/svg" xmlns:xlink="http://www.w3.org/1999/xlink" xml:space="preserve" xmlns:serif="http://www.serif.com/" style="fill-rule:evenodd;clip-rule:evenodd;stroke-linejoin:round;stroke-miterlimit:2;"><path d="M15.092,22.146c-0.015,0.03 -0.03,0.054 0,0Zm12.456,-4.35c-1.006,0 -1.998,0.23 -2.9,0.675c-0.295,-0.595 -0.6,-1.115 -0.65,-1.505c-0.06,-0.455 -0.125,-0.725 -0.055,-1.265c0.07,-0.54 0.385,-1.305 0.38,-1.36c-0.005,-0.055 -0.07,-0.33 -0.715,-0.335c-0.645,-0.005 -1.2,0.125 -1.265,0.295c-0.114,0.311 -0.203,0.63 -0.265,0.955c-0.115,0.585 -1.289,2.675 -1.954,3.765c-0.22,-0.425 -0.405,-0.8 -0.445,-1.1c-0.06,-0.455 -0.125,-0.725 -0.055,-1.265c0.07,-0.54 0.385,-1.305 0.38,-1.36c-0.005,-0.055 -0.07,-0.33 -0.714,-0.335c-0.644,-0.005 -1.2,0.125 -1.265,0.295c-0.065,0.17 -0.135,0.57 -0.265,0.955c-0.13,0.385 -1.695,3.865 -2.104,4.77c-0.21,0.46 -0.39,0.83 -0.52,1.08c-0.02,0.04 -0.035,0.065 -0.045,0.085c0.015,-0.025 0.025,-0.05 0.025,-0.04c-0.11,0.215 -0.175,0.335 -0.175,0.335l-0,0.005c-0.085,0.16 -0.18,0.305 -0.225,0.305c-0.03,0 -0.095,-0.42 0.015,-0.995c0.235,-1.21 0.79,-3.09 0.785,-3.155c-0.005,-0.035 0.105,-0.36 -0.365,-0.535c-0.455,-0.165 -0.62,0.11 -0.66,0.11c-0.04,0 -0.07,0.1 -0.07,0.1c-0,0 0.505,-2.12 -0.97,-2.12c-0.92,0 -2.2,1.01 -2.829,1.925c-0.395,0.215 -1.25,0.68 -2.15,1.175c-0.345,0.19 -0.7,0.385 -1.035,0.57c-0.025,-0.025 -0.045,-0.05 -0.07,-0.075c-1.79,-1.91 -5.094,-3.26 -4.954,-5.825c0.05,-0.935 0.375,-3.39 6.354,-6.37c4.9,-2.44 8.817,-1.77 9.492,-0.28c0.97,2.125 -2.095,6.08 -7.183,6.65c-1.94,0.215 -2.959,-0.535 -3.214,-0.815c-0.265,-0.295 -0.305,-0.31 -0.405,-0.255c-0.165,0.09 -0.06,0.35 0,0.505c0.15,0.395 0.775,1.095 1.84,1.445c0.935,0.305 3.209,0.475 5.958,-0.59c3.089,-1.19 5.494,-4.505 4.788,-7.28c-0.718,-2.82 -5.394,-3.745 -9.815,-2.175c-2.635,0.935 -5.484,2.405 -7.533,4.32c-2.435,2.28 -2.824,4.265 -2.664,5.095c0.57,2.945 4.629,4.865 6.253,6.285c-0.08,0.045 -0.155,0.085 -0.225,0.125c-0.815,0.405 -3.909,2.025 -4.684,3.735c-0.875,1.94 0.145,3.33 0.814,3.52c2.09,0.58 4.229,-0.465 5.379,-2.18c1.15,-1.715 1.01,-3.955 0.48,-4.975c-0.005,-0.015 -0.015,-0.025 -0.02,-0.04c0.21,-0.125 0.425,-0.25 0.64,-0.375c0.415,-0.245 0.82,-0.47 1.175,-0.665c-0.2,0.54 -0.345,1.19 -0.42,2.13c-0.09,1.1 0.365,2.525 0.955,3.085c0.26,0.245 0.574,0.25 0.77,0.25c0.69,0 1,-0.57 1.345,-1.25c0.425,-0.83 0.8,-1.795 0.8,-1.795c-0,0 -0.47,2.61 0.815,2.61c0.47,0 0.94,-0.605 1.15,-0.915l-0,0.005c-0,0 0.01,-0.02 0.035,-0.06c0.05,-0.075 0.075,-0.12 0.075,-0.12l-0,-0.015c0.19,-0.325 0.605,-1.07 1.23,-2.3c0.81,-1.59 1.584,-3.575 1.584,-3.575c0.075,0.436 0.179,0.867 0.31,1.29c0.14,0.475 0.435,0.995 0.67,1.5c-0.19,0.26 -0.305,0.41 -0.305,0.41c-0,0.004 0.002,0.007 0.005,0.01c-0.15,0.2 -0.32,0.415 -0.495,0.625c-0.639,0.76 -1.4,1.63 -1.5,1.88c-0.12,0.295 -0.09,0.515 0.14,0.685c0.17,0.13 0.47,0.15 0.785,0.125c0.575,-0.04 0.98,-0.18 1.175,-0.27c0.36,-0.129 0.699,-0.307 1.01,-0.53c0.625,-0.46 1.005,-1.12 0.97,-1.99c-0.02,-0.48 -0.175,-0.96 -0.365,-1.41c0.055,-0.08 0.115,-0.165 0.17,-0.25c0.989,-1.445 1.755,-3.031 1.755,-3.031c0.075,0.436 0.178,0.867 0.31,1.29c0.12,0.405 0.355,0.85 0.57,1.285c-0.93,0.755 -1.505,1.63 -1.704,2.205c-0.37,1.065 -0.08,1.545 0.465,1.655c0.245,0.05 0.595,-0.065 0.855,-0.175c0.386,-0.129 0.75,-0.316 1.079,-0.555c0.625,-0.46 1.23,-1.105 1.189,-1.98c-0.015,-0.395 -0.125,-0.79 -0.27,-1.17c0.785,-0.33 1.805,-0.51 3.105,-0.36c2.784,0.325 3.329,2.065 3.224,2.79c-0.105,0.725 -0.69,1.13 -0.885,1.25c-0.195,0.12 -0.255,0.165 -0.24,0.255c0.025,0.13 0.115,0.125 0.28,0.095c0.23,-0.04 1.46,-0.59 1.515,-1.935c0.08,-1.7 -1.555,-3.57 -4.45,-3.555l-0.002,0.001Zm-21.459,7.235c-0.92,1.005 -2.209,1.385 -2.764,1.065c-0.595,-0.346 -0.36,-1.825 0.774,-2.896c0.69,-0.65 1.58,-1.25 2.17,-1.62c0.135,-0.08 0.33,-0.2 0.57,-0.345c0.04,-0.025 0.06,-0.035 0.06,-0.035c0.045,-0.03 0.095,-0.055 0.145,-0.085c0.414,1.52 0.015,2.86 -0.955,3.915l-0,0.001Zm6.718,-4.57c-0.32,0.785 -0.994,2.785 -1.405,2.68c-0.35,-0.09 -0.565,-1.615 -0.07,-3.115c0.25,-0.755 0.78,-1.655 1.095,-2.005c0.505,-0.565 1.06,-0.745 1.19,-0.52c0.175,0.295 -0.61,2.47 -0.81,2.96Zm5.55,2.65c-0.135,0.07 -0.26,0.115 -0.32,0.08c-0.045,-0.025 0.055,-0.12 0.055,-0.12c-0,-0 0.695,-0.745 0.97,-1.085c0.16,-0.2 0.345,-0.435 0.545,-0.695c-0,0.025 0.005,0.05 0.005,0.08c-0.006,0.895 -0.866,1.5 -1.256,1.74l0.001,0Zm4.28,-0.975c-0.1,-0.07 -0.085,-0.305 0.25,-1.035c0.13,-0.285 0.43,-0.765 0.95,-1.225c0.059,0.174 0.091,0.356 0.095,0.54c-0.005,1.125 -0.81,1.545 -1.295,1.72Z" style="fill:#ede9e9;fill-rule:nonzero;"/></svg>