<?xml version="1.0" encoding="UTF-8" standalone="no"?><!DOCTYPE svg PUBLIC "-//W3C//DTD SVG 1.1//EN" "http://www.w3.org/Graphics/SVG/1.1/DTD/svg11.dtd"><svg width="100%" height="100%" viewBox="0 0 249 377" version="1.1" xmlns="http://www.w3.org/2000/svg" xmlns:xlink="http://www.w3.org/1999/xlink" xml:space="preserve" xmlns:serif="http://www.serif.com/" style="fill-rule:evenodd;clip-rule:evenodd;stroke-linejoin:round;stroke-miterlimit:2;"><path d="M197.479,357.336l1.374,1.365l-1.132,0.756l-1.515,-0.474l1.273,-1.647Z" style="fill:#ede9e9;"/><path d="M65.649,348.88l1.374,1.366l-1.132,0.756l-1.515,-0.474l1.273,-1.648Z" style="fill:#ede9e9;"/><path d="M69.813,75.596l1.413,1.356l-1.164,0.751l-1.558,-0.471l1.309,-1.636Z" style="fill:#ede9e9;"/><path d="M53.88,60.798l0.596,0.748l-0.491,0.414l-0.657,-0.26l0.552,-0.902Z" style="fill:#ede9e9;"/><path d="M93.487,93.921l0.661,0.626l-0.545,0.347l-0.729,-0.218l0.613,-0.755Z" style="fill:#ede9e9;"/><path d="M80.027,104.563l1.086,1.153l-0.895,0.638l-1.198,-0.4l1.007,-1.391Z" style="fill:#ede9e9;"/><path d="M88.276,119.865l1.086,1.153l-0.895,0.638l-1.198,-0.4l1.007,-1.391Z" style="fill:#ede9e9;"/><path d="M156.662,117.976l1.087,1.153l-0.895,0.638l-1.198,-0.4l1.006,-1.391Z" style="fill:#ede9e9;"/><path d="M165.77,131.2l0.858,0.747l-0.707,0.414l-0.945,-0.259l0.794,-0.902Z" style="fill:#ede9e9;"/><path d="M201.908,128.114l1.935,2.004l-1.595,1.11l-2.134,-0.696l1.794,-2.418Z" style="fill:#ede9e9;"/><path d="M227.33,145.872l0.694,0.869l-0.571,0.482l-0.766,-0.302l0.643,-1.049Z" style="fill:#ede9e9;"/><path d="M247.355,109.412l0.694,0.869l-0.572,0.481l-0.765,-0.302l0.643,-1.048Z" style="fill:#ede9e9;"/><path d="M242.493,163.74l0.408,0.666l-0.336,0.37l-0.45,-0.232l0.378,-0.804Z" style="fill:#ede9e9;"/><path d="M196.561,158.624l1.552,1.375l-1.278,0.762l-1.712,-0.478l1.438,-1.659Z" style="fill:#ede9e9;"/><path d="M183.242,167.99l0.939,1.022l-0.774,0.565l-1.036,-0.354l0.871,-1.233Z" style="fill:#ede9e9;"/><path d="M172.102,170.328l1.399,1.358l-1.153,0.753l-1.543,-0.472l1.297,-1.639Z" style="fill:#ede9e9;"/><path d="M169.039,167.668l1.399,1.358l-1.153,0.753l-1.543,-0.472l1.297,-1.639Z" style="fill:#ede9e9;"/><path d="M142.464,161.583l2.947,2.369l-2.428,1.313l-3.25,-0.823l2.731,-2.859Z" style="fill:#ede9e9;"/><path d="M120.503,163.114l0.646,0.71l-0.532,0.393l-0.713,-0.246l0.599,-0.857Z" style="fill:#ede9e9;"/><path d="M110.653,163.114l0.542,0.476l-0.446,0.264l-0.598,-0.165l0.502,-0.575Z" style="fill:#ede9e9;"/><path d="M103.359,159.89l0.541,0.476l-0.446,0.264l-0.597,-0.165l0.502,-0.575Z" style="fill:#ede9e9;"/><path d="M68.824,168.313l1.545,1.436l-1.273,0.796l-1.705,-0.499l1.433,-1.733Z" style="fill:#ede9e9;"/><path d="M56.537,162.96l1.742,1.517l-1.435,0.841l-1.921,-0.527l1.614,-1.831Z" style="fill:#ede9e9;"/><path d="M29.139,157.608l2.755,2.368l-2.27,1.312l-3.038,-0.823l2.553,-2.857Z" style="fill:#ede9e9;"/><path d="M6.336,165.479l1.251,1.112l-1.031,0.616l-1.38,-0.386l1.16,-1.342Z" style="fill:#ede9e9;"/><path d="M33.079,192.95l0.72,1.112l-0.594,0.616l-0.794,-0.386l0.668,-1.342Z" style="fill:#ede9e9;"/><path d="M31.102,212.865l0.965,1.01l-0.795,0.56l-1.065,-0.351l0.895,-1.219Z" style="fill:#ede9e9;"/><path d="M92.169,220.894l1.374,1.365l-1.132,0.756l-1.516,-0.474l1.274,-1.647Z" style="fill:#ede9e9;"/><path d="M40.859,273.357l1.374,1.365l-1.132,0.756l-1.516,-0.474l1.274,-1.647Z" style="fill:#ede9e9;"/><path d="M222.654,313.713l1.374,1.365l-1.132,0.756l-1.516,-0.474l1.274,-1.647Z" style="fill:#ede9e9;"/><path d="M93.527,227.506l1.905,1.821l-1.57,1.009l-2.101,-0.633l1.766,-2.197Z" style="fill:#ede9e9;"/><path d="M80.228,224.121l0.721,0.757l-0.594,0.42l-0.794,-0.263l0.667,-0.914Z" style="fill:#ede9e9;"/><path d="M130.666,202.632l1.21,1.416l-0.997,0.784l-1.335,-0.492l1.122,-1.708Z" style="fill:#ede9e9;"/><path d="M154.378,215.699l1.742,1.77l-1.435,0.981l-1.921,-0.615l1.614,-2.136Z" style="fill:#ede9e9;"/><path d="M139.26,190.038l0.803,0.757l-0.661,0.42l-0.885,-0.263l0.743,-0.914Z" style="fill:#ede9e9;"/><path d="M172.389,223.649l2.15,1.922l-1.771,1.065l-2.372,-0.668l1.993,-2.319Z" style="fill:#ede9e9;"/><path d="M202.467,211.448l1.905,1.568l-1.57,0.868l-2.101,-0.544l1.766,-1.892Z" style="fill:#ede9e9;"/><path d="M179.929,241.359l1.537,1.467l-1.267,0.812l-1.695,-0.509l1.425,-1.77Z" style="fill:#ede9e9;"/><path d="M207.217,267.879l1.538,1.467l-1.267,0.812l-1.696,-0.509l1.425,-1.77Z" style="fill:#ede9e9;"/><path d="M123.238,265.957l1.537,1.467l-1.267,0.812l-1.695,-0.509l1.425,-1.77Z" style="fill:#ede9e9;"/><path d="M32.148,250.007l1.538,1.467l-1.267,0.812l-1.696,-0.509l1.425,-1.77Z" style="fill:#ede9e9;"/><path d="M232.776,230.79l1.537,1.466l-1.266,0.813l-1.696,-0.51l1.425,-1.769Z" style="fill:#ede9e9;"/><path d="M23.308,350.897l1.538,1.467l-1.267,0.812l-1.696,-0.509l1.425,-1.77Z" style="fill:#ede9e9;"/><path d="M195.288,273.958l1.046,1.009l-0.862,0.559l-1.154,-0.35l0.97,-1.218Z" style="fill:#ede9e9;"/><path d="M197.655,261.255l0.677,0.636l-0.558,0.352l-0.747,-0.221l0.628,-0.767Z" style="fill:#ede9e9;"/><path d="M122.323,304.493l0.678,0.636l-0.558,0.353l-0.748,-0.221l0.628,-0.768Z" style="fill:#ede9e9;"/><path d="M232.246,317.753l0.678,0.636l-0.559,0.353l-0.747,-0.221l0.628,-0.768Z" style="fill:#ede9e9;"/><path d="M177.284,233.005l0.678,0.636l-0.558,0.353l-0.748,-0.221l0.628,-0.768Z" style="fill:#ede9e9;"/><path d="M208.609,214.172l0.677,0.636l-0.558,0.353l-0.747,-0.221l0.628,-0.768Z" style="fill:#ede9e9;"/><path d="M123.861,259.717l0.677,0.636l-0.558,0.353l-0.747,-0.221l0.628,-0.768Z" style="fill:#ede9e9;"/><path d="M178.822,357.725l0.678,0.636l-0.559,0.352l-0.747,-0.22l0.628,-0.768Z" style="fill:#ede9e9;"/><path d="M54.679,282.394l0.677,0.636l-0.558,0.352l-0.747,-0.221l0.628,-0.767Z" style="fill:#ede9e9;"/><path d="M238.78,261.063l0.677,0.636l-0.558,0.352l-0.747,-0.221l0.628,-0.767Z" style="fill:#ede9e9;"/><path d="M197.27,278.935l0.678,0.636l-0.558,0.352l-0.748,-0.221l0.628,-0.767Z" style="fill:#ede9e9;"/><path d="M131.547,304.493l0.678,0.636l-0.558,0.353l-0.748,-0.221l0.628,-0.768Z" style="fill:#ede9e9;"/><path d="M92.537,290.081l0.677,0.636l-0.558,0.352l-0.747,-0.221l0.628,-0.767Z" style="fill:#ede9e9;"/><path d="M227.826,228.201l0.678,0.636l-0.559,0.352l-0.747,-0.221l0.628,-0.767Z" style="fill:#ede9e9;"/><path d="M76.202,343.312l0.678,0.636l-0.559,0.353l-0.747,-0.221l0.628,-0.768Z" style="fill:#ede9e9;"/><path d="M63.134,336.394l0.678,0.636l-0.558,0.352l-0.748,-0.221l0.628,-0.767Z" style="fill:#ede9e9;"/><path d="M24.315,358.494l0.678,0.636l-0.558,0.352l-0.748,-0.221l0.628,-0.767Z" style="fill:#ede9e9;"/><path d="M26.429,278.358l0.678,0.636l-0.558,0.352l-0.748,-0.221l0.628,-0.767Z" style="fill:#ede9e9;"/><path d="M207.585,278.568l0.678,0.636l-0.559,0.353l-0.747,-0.221l0.628,-0.768Z" style="fill:#ede9e9;"/><path d="M238.822,265.789l0.416,0.344l-0.342,0.191l-0.46,-0.12l0.386,-0.415Z" style="fill:#ede9e9;"/><path d="M125.045,297.347l1.374,1.234l-1.132,0.683l-1.515,-0.429l1.273,-1.488Z" style="fill:#ede9e9;"/><path d="M46.7,282.856l1.912,1.7l-1.575,0.941l-2.109,-0.59l1.772,-2.051Z" style="fill:#ede9e9;"/><path d="M183.519,358.342l4.226,4.172l-3.482,2.312l-4.66,-1.45l3.916,-5.034Z" style="fill:#ede9e9;"/><path d="M16.875,356.65l1.912,1.7l-1.575,0.941l-2.109,-0.59l1.772,-2.051Z" style="fill:#ede9e9;"/><path d="M68.845,338.406l1.912,1.699l-1.575,0.942l-2.109,-0.591l1.772,-2.05Z" style="fill:#ede9e9;"/><path d="M226.862,321.141l1.911,1.699l-1.575,0.941l-2.108,-0.59l1.772,-2.05Z" style="fill:#ede9e9;"/><path d="M119.14,260.711l1.912,1.7l-1.575,0.941l-2.109,-0.59l1.772,-2.051Z" style="fill:#ede9e9;"/><path d="M62.57,110.545l0.596,0.505l-0.491,0.279l-0.657,-0.175l0.552,-0.609Z" style="fill:#ede9e9;"/><path d="M3.436,72.762l0.596,0.505l-0.491,0.279l-0.657,-0.175l0.552,-0.609Z" style="fill:#ede9e9;"/><path d="M28.878,129.905l1.087,1.072l-0.895,0.593l-1.198,-0.372l1.006,-1.293Z" style="fill:#ede9e9;"/><path d="M34.776,21.321l0.633,0.591l-0.521,0.327l-0.698,-0.205l0.586,-0.713Z" style="fill:#ede9e9;"/><path d="M69.653,13.059l2.39,2.147l-1.969,1.19l-2.635,-0.746l2.214,-2.591Z" style="fill:#ede9e9;"/><path d="M103.814,21.724l1.155,1.317l-0.952,0.73l-1.274,-0.458l1.071,-1.589Z" style="fill:#ede9e9;"/><path d="M115.741,41.552l0.674,0.747l-0.556,0.414l-0.743,-0.26l0.625,-0.901Z" style="fill:#ede9e9;"/><path d="M151.891,13.059l0.674,0.747l-0.555,0.413l-0.744,-0.259l0.625,-0.901Z" style="fill:#ede9e9;"/><path d="M154.254,9.069l1.616,1.421l-1.331,0.787l-1.782,-0.493l1.497,-1.715Z" style="fill:#ede9e9;"/><path d="M205.199,2.142l0.733,0.773l-0.604,0.428l-0.808,-0.268l0.679,-0.933Z" style="fill:#ede9e9;"/><path d="M243.926,2.898l0.733,0.773l-0.604,0.428l-0.808,-0.269l0.679,-0.932Z" style="fill:#ede9e9;"/><path d="M242.368,15.32l1.012,1.065l-0.834,0.59l-1.115,-0.37l0.937,-1.285Z" style="fill:#ede9e9;"/><path d="M229.671,45.354l1.012,1.065l-0.834,0.59l-1.115,-0.37l0.937,-1.285Z" style="fill:#ede9e9;"/><path d="M130.706,72.511l1.413,1.355l-1.164,0.751l-1.558,-0.471l1.309,-1.635Z" style="fill:#ede9e9;"/><path d="M103.749,64.547l0.643,0.671l-0.53,0.371l-0.709,-0.233l0.596,-0.809Z" style="fill:#ede9e9;"/></svg>