<?xml version="1.0" encoding="UTF-8" standalone="no"?><!DOCTYPE svg PUBLIC "-//W3C//DTD SVG 1.1//EN" "http://www.w3.org/Graphics/SVG/1.1/DTD/svg11.dtd"><svg width="100%" height="100%" viewBox="0 0 32 32" version="1.1" xmlns="http://www.w3.org/2000/svg" xmlns:xlink="http://www.w3.org/1999/xlink" xml:space="preserve" xmlns:serif="http://www.serif.com/" style="fill-rule:evenodd;clip-rule:evenodd;stroke-linecap:round;stroke-linejoin:round;stroke-miterlimit:1.5;"><path d="M10.151,30.613c0.045,-0.358 0.134,-1.073 0.091,-1.559c-0.041,-0.466 -0.18,-1.003 -0.348,-1.358c-0.145,-0.305 -0.447,-0.507 -0.66,-0.77c-0.239,-0.293 -0.549,-0.636 -0.771,-0.99c-0.241,-0.386 -0.485,-0.865 -0.678,-1.321c-0.205,-0.483 -0.409,-1.039 -0.551,-1.577c-0.159,-0.606 -0.315,-1.362 -0.403,-2.055c-0.104,-0.816 -0.181,-1.893 -0.22,-2.843c-0.049,-1.174 -0.074,-2.971 -0.074,-4.2c0,-1.058 -0.006,-2.271 0.074,-3.173c0.066,-0.755 0.211,-1.553 0.403,-2.238c0.182,-0.647 0.465,-1.314 0.752,-1.871c0.269,-0.521 0.615,-1.012 0.972,-1.467c0.356,-0.453 0.744,-0.884 1.174,-1.266c0.434,-0.385 0.942,-0.739 1.431,-1.045c0.48,-0.3 0.979,-0.576 1.504,-0.789c0.55,-0.223 1.247,-0.425 1.797,-0.55c0.494,-0.112 0.999,-0.196 1.504,-0.202c0.56,-0.006 1.287,0.058 1.853,0.165c0.528,0.1 1.052,0.288 1.541,0.477c0.479,0.186 0.952,0.397 1.394,0.66c0.461,0.276 0.981,0.691 1.375,0.991c0.339,0.257 0.69,0.506 0.991,0.807c0.315,0.315 0.635,0.695 0.899,1.082c0.287,0.422 0.596,0.966 0.825,1.449c0.222,0.467 0.416,0.95 0.55,1.449c0.159,0.593 0.319,1.399 0.404,2.109c0.085,0.722 0.105,1.479 0.11,2.22c0.006,0.859 -0.037,2.103 -0.074,2.934c-0.03,0.686 -0.081,1.371 -0.146,2.055c-0.077,0.801 -0.178,1.913 -0.312,2.751c-0.123,0.766 -0.281,1.55 -0.495,2.274c-0.21,0.709 -0.474,1.443 -0.789,2.073c-0.303,0.605 -0.743,1.269 -1.101,1.706c-0.293,0.359 -0.736,0.608 -1.045,0.917c-0.291,0.291 -0.593,0.624 -0.807,0.935c-0.198,0.289 -0.358,0.621 -0.477,0.936c-0.116,0.306 -0.19,0.657 -0.238,0.954c-0.045,0.272 -0.052,0.641 -0.055,0.825" style="fill:none;stroke:#ede9e9;stroke-width:0.83px;"/><ellipse cx="11.728" cy="12.463" rx="1.431" ry="2.485" style="fill:#ede9e9;"/><ellipse cx="20.349" cy="12.399" rx="1.467" ry="2.494" style="fill:#ede9e9;"/></svg>