<?xml version="1.0" encoding="UTF-8" standalone="no"?><!DOCTYPE svg PUBLIC "-//W3C//DTD SVG 1.1//EN" "http://www.w3.org/Graphics/SVG/1.1/DTD/svg11.dtd"><svg width="100%" height="100%" viewBox="0 0 574 500" version="1.1" xmlns="http://www.w3.org/2000/svg" xmlns:xlink="http://www.w3.org/1999/xlink" xml:space="preserve" xmlns:serif="http://www.serif.com/" style="fill-rule:evenodd;clip-rule:evenodd;stroke-linecap:square;stroke-miterlimit:1.5;"><path d="M120.896,11.605l-5.827,10.814l-32.653,209.886l248.961,38.586l32.54,-209.953l-179.399,-27.804l-1.992,-11.984l-61.63,-9.545" style="fill:#ede9e9;stroke:#000;stroke-width:1px;"/><g><g><path d="M443.325,355.599l-19.394,26.307l9.038,12.406l-12.431,20.411l19.585,-10.592l55.431,76.088l66.793,-33.418l3.101,-34.749l-65.991,-91.036l-56.132,34.583Z"/><path d="M475.25,453.557l19.843,27.055l67.265,-33.421l3.092,-36.035l-66.128,-90.942l-56.134,35.526l-19.828,26.378l62.849,-39.511l12.431,-20.754l-12.431,20.754l76.149,104.584" style="fill:none;stroke:#ede9e9;stroke-width:1px;stroke-linecap:round;stroke-linejoin:round;"/><path d="M423.713,382.592l7.223,9.849" style="fill:none;stroke:#ede9e9;stroke-width:1px;stroke-linecap:round;stroke-linejoin:round;"/><path d="M419.54,415.287l24.609,-37.871" style="fill:none;stroke:#ede9e9;stroke-width:1px;stroke-linecap:round;stroke-linejoin:round;"/><path d="M492.175,469.49l58.296,-30.205l-29.544,-40.722l-2.664,1.897l-3.05,1.932l-6.685,21.079l6.135,9.123l-36.066,19.396l13.441,17.478" style="stroke:#ede9e9;stroke-width:1px;stroke-linecap:round;stroke-linejoin:round;"/></g><g><path d="M425.485,386.5l0.301,2.689l22.22,40.069l55.93,-31.02l-22.251,-40.064l-40.303,22.353l-2.053,-1.707l-13.844,7.68" style="fill:#ede9e9;stroke:#000;stroke-width:0.52px;"/><path d="M476.545,366.557l2.115,1.69l22.062,40.156l-56.093,30.724l-22.04,-40.18l40.42,-22.14l-0.35,-2.646l13.886,-7.604" style="fill:#ede9e9;stroke:#000;stroke-width:0.52px;"/><path d="M421.722,405.815l0.33,2.685l22.637,39.836l55.601,-31.606l-22.669,-39.829l-40.066,22.774l-2.07,-1.685l-13.763,7.825" style="fill:#ede9e9;stroke:#000;stroke-width:0.52px;"/><path d="M494.084,353.524l-12.141,33.218l26.648,36.898l11.104,-34.797l-25.611,-35.319Z" style="stroke:#ede9e9;stroke-width:1px;stroke-linecap:round;stroke-linejoin:round;"/><path d="M486.529,391.472l10.981,-32.349" style="fill:none;stroke:#ede9e9;stroke-width:1px;stroke-linecap:round;stroke-linejoin:round;"/><path d="M408.382,422.097l69.207,-42.069l37.222,52.411l-70.933,37.877l-35.496,-48.219Z" style="stroke:#ede9e9;stroke-width:1px;stroke-linecap:round;stroke-linejoin:round;"/><path d="M436.814,417.585l4.983,7.201l14.358,-8.7l-4.824,-7.428l-14.517,8.927Z" style="fill:none;stroke:#ede9e9;stroke-width:1px;stroke-linecap:round;stroke-linejoin:round;"/></g></g><path d="M342.415,307.868l-1.778,3.912l-4.243,73.394l95.122,5.44l4.198,-73.414l-68.544,-3.919l-1.208,-4.069l-23.547,-1.344" style="fill:#ede9e9;stroke:#000;stroke-width:1px;"/><path d="M291.372,234.976l0.07,7.974l-44.826,130.386l-154.616,-53.255l44.911,-130.391l111.415,38.376l4.773,-6.277l38.273,13.187" style="fill:#ede9e9;stroke:#000;stroke-width:1px;"/><path d="M190.324,343.472l0.048,6.605l41.493,105.106l136.184,-53.86l-41.568,-105.104l-98.134,38.811l-4.313,-4.894l-33.71,13.336" style="fill:#ede9e9;stroke:#000;stroke-width:1px;"/></svg>