<?xml version="1.0" encoding="UTF-8" standalone="no"?><!DOCTYPE svg PUBLIC "-//W3C//DTD SVG 1.1//EN" "http://www.w3.org/Graphics/SVG/1.1/DTD/svg11.dtd"><svg width="100%" height="100%" viewBox="0 0 5437 2838" version="1.1" xmlns="http://www.w3.org/2000/svg" xmlns:xlink="http://www.w3.org/1999/xlink" xml:space="preserve" xmlns:serif="http://www.serif.com/" style="fill-rule:evenodd;clip-rule:evenodd;stroke-linejoin:round;stroke-miterlimit:2;"><g><path d="M5436.86,1657.85l-0,1180.15l-5436.85,0l0,-869.6c139.632,-74.07 369.293,-212.01 600.598,-47.3c515.676,367.21 744.676,-452 1540.55,27.27c145.33,87.52 404.35,67.6 527.02,-1.17c182.25,-102.16 155.79,74.69 536.37,-196.32c322.49,-229.63 382.11,118.08 799.69,105.56c25.76,-0.77 214.37,109.07 355.62,109.07c57,-164.57 574,-143.12 712.43,-267.99c110.5,-99.66 234.57,-94.48 364.58,-39.67Z" style="fill:#1c1919;"/><path d="M5436.86,1904.29l-0,933.71l-5436.85,0l0,-824.49c134.846,-38.71 273.182,-53.99 352.657,-3.23c507.571,324.12 571.724,-83.39 773.797,-112.23c230.17,-32.85 201.21,140.37 582.42,188.3c119.62,15.04 178.4,129.75 441.74,68.56c72.5,-16.84 322.58,2.15 490.47,-84.28c60.05,-30.93 565.52,-147.92 634.77,-147.92c209,0 509.21,335.77 1086.47,196.52c309.54,-74.67 218.17,-86.76 622.04,-73.26c105.08,3.521 309.26,-112.84 452.49,-141.68Z" style="fill:#beb6b6;"/><path d="M5436.86,2230.32l-0,607.68l-5436.85,0l0,-440.48c64.944,-10.39 141.338,-35.44 195.764,-48.63c139.619,-33.87 240.121,-129.12 325.451,-236.83c14.51,-18.319 51.313,-33.48 53.658,-35.549c149.512,79.649 117.54,95.679 205.374,151.719c30.709,19.6 322.157,132.64 361.087,132.64c196.97,-0 175.31,-79.28 297.3,-111.89c78.33,-20.95 129.76,-11.13 222.32,-69.04c23.74,-14.86 162,-84.919 190.38,-84.919c99.23,-0 298.38,178.639 354.46,194.269c23.06,0.77 341.61,77.06 398.47,85.51c150.15,22.32 229.65,-83.72 364.5,-82.09c169.92,2.05 227.24,-132.27 412.89,-122.7c157.86,8.13 254.88,-66.24 368.39,-142.56c130.42,-87.69 158.91,75.76 237.71,92.02c1.5,7.23 12.97,14.84 17.62,16.46c164.78,40.93 263.46,102.39 426.02,95.44c0.96,-0.03 141.61,52.36 232.94,51.12c167.2,-2.26 95.86,-44.3 274.9,-44.3c150.3,0 121.75,-79.1 387.76,-17.63c9.1,2.1 74.83,7.48 109.86,9.76Z" style="fill:#d5cbcb;"/><path d="M5436.86,2352.82l-0,485.18l-5436.85,0l0,-538.12c113.456,-47.17 229.011,-79.19 319.087,-33.17c135.425,69.21 458.699,24.82 724.897,134.59c125.99,51.95 120.23,-87.11 278.89,-156.79c5.31,-46.04 94.41,-59.18 96.61,-78.29c164.28,-77.85 211.37,52.19 402.76,93.09c67.06,14.34 161.99,72.86 306.17,102.25c136.35,27.81 375.41,94.46 505.59,2.34c22.51,-15.93 261.66,-124.45 318.63,-124.45c308.12,-123.17 149.34,-56.16 459.64,-27.84c252.08,23 350.99,75.12 587.98,115.29c63.17,10.71 525.86,-30.86 595.19,-69.33c120.4,-66.81 357.38,-96.69 477.75,-6.82c64.24,47.97 218.66,72.41 363.66,102.07Z" style="fill:#ede9e9;"/></g></svg>