<?xml version="1.0" encoding="UTF-8" standalone="no"?><!DOCTYPE svg PUBLIC "-//W3C//DTD SVG 1.1//EN" "http://www.w3.org/Graphics/SVG/1.1/DTD/svg11.dtd"><svg width="100%" height="100%" viewBox="0 0 50 50" version="1.1" xmlns="http://www.w3.org/2000/svg" xmlns:xlink="http://www.w3.org/1999/xlink" xml:space="preserve" xmlns:serif="http://www.serif.com/" style="fill-rule:evenodd;clip-rule:evenodd;stroke-linejoin:round;stroke-miterlimit:2;"><path d="M24.876,1.241c12.873,-0 23.325,10.451 23.325,23.325c-0,12.873 -10.452,23.325 -23.325,23.325c-12.874,-0 -23.325,-10.452 -23.325,-23.325c-0,-7.065 3.148,-13.401 8.116,-17.68c4.085,-3.518 9.4,-5.645 15.209,-5.645Z" style="fill-opacity:0.6;"/><path d="M24.876,1.241c12.873,-0 23.325,10.451 23.325,23.325c-0,12.873 -10.452,23.325 -23.325,23.325c-12.874,-0 -23.325,-10.452 -23.325,-23.325c-0,-7.065 3.148,-13.401 8.116,-17.68" style="fill-opacity:0;stroke:#ede9e9;stroke-width:0.4px;stroke-linecap:round;stroke-miterlimit:1.5;"/></svg>