<?xml version="1.0" encoding="UTF-8" standalone="no"?><!DOCTYPE svg PUBLIC "-//W3C//DTD SVG 1.1//EN" "http://www.w3.org/Graphics/SVG/1.1/DTD/svg11.dtd"><svg width="100%" height="100%" viewBox="0 0 32 32" version="1.1" xmlns="http://www.w3.org/2000/svg" xmlns:xlink="http://www.w3.org/1999/xlink" xml:space="preserve" xmlns:serif="http://www.serif.com/" style="fill-rule:evenodd;clip-rule:evenodd;stroke-linejoin:round;stroke-miterlimit:2;"><path d="M2,2l0,28l28,0l0,-28l-28,0Zm15.238,21.837c0,2.725 -1.6,3.969 -3.931,3.969c-2.106,0 -3.325,-1.087 -3.95,-2.406l2.144,-1.294c0.413,0.731 0.788,1.35 1.694,1.35c0.862,0 1.412,-0.338 1.412,-1.656l0,-8.944l2.631,0l0,8.981Zm6.224,3.969c-2.444,-0 -4.025,-1.162 -4.794,-2.688l2.144,-1.237c0.563,0.919 1.3,1.6 2.594,1.6c1.087,-0 1.788,-0.544 1.788,-1.3c0,-0.9 -0.713,-1.219 -1.919,-1.75l-0.656,-0.281c-1.9,-0.806 -3.156,-1.825 -3.156,-3.969c0,-1.975 1.506,-3.475 3.85,-3.475c1.675,-0 2.875,0.581 3.738,2.106l-2.05,1.313c-0.45,-0.806 -0.938,-1.125 -1.694,-1.125c-0.768,-0 -1.256,0.488 -1.256,1.125c0,0.788 0.488,1.106 1.619,1.6l0.656,0.281c2.238,0.956 3.494,1.938 3.494,4.137c0,2.363 -1.863,3.662 -4.357,3.662l-0.001,0.001Z" style="fill:#ede9e9;fill-rule:nonzero;"/></svg>