<?xml version="1.0" encoding="UTF-8" standalone="no"?><!DOCTYPE svg PUBLIC "-//W3C//DTD SVG 1.1//EN" "http://www.w3.org/Graphics/SVG/1.1/DTD/svg11.dtd"><svg width="100%" height="100%" viewBox="0 0 1280 400" version="1.1" xmlns="http://www.w3.org/2000/svg" xmlns:xlink="http://www.w3.org/1999/xlink" xml:space="preserve" xmlns:serif="http://www.serif.com/" style="fill-rule:evenodd;clip-rule:evenodd;stroke-linecap:round;stroke-linejoin:round;stroke-miterlimit:1.5;"><path d="M1287.6,69.82l-434.554,0l-118.132,24.228l-130.867,5.099l-113.752,-11.851l-63.927,-17.476l-440.201,0l0,327.268l1301.43,0l0,-327.268Z" style="fill:#ede9e9;"/><path d="M791.282,243.153l29.426,-2.942l24.332,-7.821l26.505,-13.616" style="fill:none;stroke:#000;stroke-width:0.6px;"/><path d="M27.108,211.55l28.657,34.986l36.667,28.985l47.69,29.027l47.942,16.464" style="fill:none;stroke:#000;stroke-width:2px;"/><path d="M1281.57,134.28l-32.013,44.948l-54.909,49.742l-57.003,28.539l-60.934,26.84l-87.029,31.175l-87.109,18.2" style="fill:none;stroke:#000;stroke-width:1px;"/><path d="M346.936,108.354l33.884,22.479l35.88,16.55l39.134,13.409l37.787,9.653l39.052,6.258l48.726,2.272" style="fill:none;stroke:#000;stroke-width:1.3px;"/><path d="M88.754,94.261l75.77,69.473l70.621,38.224l139.77,52.965l135.356,32.368l163.31,10.299l161.839,-17.655l142.713,-32.368l144.184,-66.207l85.333,-72.092" style="fill:none;stroke:#000;stroke-width:2px;"/></svg>