<svg xmlns="http://www.w3.org/2000/svg" viewBox="0 0 58560 960" width="58560" height="960"><g fill="#000000"><path d="M120 240h720v80H120zM120 440h720v80H120zM120 640h720v80H120zM760 520H647"/><path d="M647 441l-2-1h115"/></g><g fill="#000000"><path d="M1080 240.546h720v80h-720zM1080 440h720v80h-720zM1080 639.454h720v80h-720zM1720 520h-113"/><path d="M1607 441l-2-1h115"/></g><g fill="#000000"><path d="M2040 242.087h720v80h-720zM2040 440h720v80h-720zM2040 637.913h720v80h-720zM2680 520h-113"/><path d="M2567 441l-2-1h115"/></g><g fill="#000000"><path d="M3000 244.499h720v80h-720zM3000 440h720v80h-720zM3000 635.501h720v80h-720zM3640 520h-113"/><path d="M3527 441l-2-1h115"/></g><g fill="#000000"><path d="M3960 247.682h720v80h-720zM3960 440h720v80h-720zM3960 632.318h720v80h-720zM4600 520h-113"/><path d="M4487 441l-2-1h115"/></g><g fill="#000000"><path d="M4920 251.556h720v80h-720zM4920 440h720v80h-720zM4920 628.444h720v80h-720zM5560 520h-113"/><path d="M5447 441l-2-1h115"/></g><g fill="#000000"><path d="M5880 256.054h720v80h-720zM5880 440h720v80h-720zM5880 623.946h720v80h-720zM6520 520h-113"/><path d="M6407 441l-2-1h115"/></g><g fill="#000000"><path d="M6840 261.12h720v80h-720zM6840 440h720v80h-720zM6840 618.88h720v80h-720zM7480 520h-113"/><path d="M7367 441l-2-1h115"/></g><g fill="#000000"><path d="M7800 266.708h720v80h-720zM7800 440h720v80h-720zM7800 613.292h720v80h-720zM8440 520h-113"/><path d="M8327 441l-2-1h115"/></g><g fill="#000000"><path d="M8760 272.776h720v80h-720zM8760 440h720v80h-720zM8760 607.224h720v80h-720zM9400 520h-113"/><path d="M9287 441l-2-1h115"/></g><g fill="#000000"><path d="M9720 279.29h720v80h-720zM9720 440h720v80h-720zM9720 600.71h720v80h-720zM10360 520h-113"/><path d="M10247 441l-2-1h115"/></g><g fill="#000000"><path d="M10680 286.22h720v80h-720zM10680 440h720v80h-720zM10680 593.78h720v80h-720zM11320 520h-113"/><path d="M11207 441l-2-1h115"/></g><g fill="#000000"><path d="M11640 293.541h720v80h-720zM11640 440h720v80h-720zM11640 586.459h720v80h-720zM12280 520h-113"/><path d="M12167 441l-2-1h115"/></g><g fill="#000000"><path d="M12600 301.228h720v80h-720zM12600 440h720v80h-720zM12600 578.772h720v80h-720zM13240 520h-113"/><path d="M13127 441l-2-1h115"/></g><g fill="#000000"><path d="M13560 309.264h720v80h-720zM13560 440h720v80h-720zM13560 570.736h720v80h-720zM14200 520h-113"/><path d="M14087 441l-2-1h115"/></g><g fill="#000000"><path d="M14520 317.63h720v80h-720zM14520 440h720v80h-720zM14520 562.37h720v80h-720zM15160 520h-113"/><path d="M15047 441l-2-1h115"/></g><g fill="#000000"><path d="M15480 326.311h720v80h-720zM15480 440h720v80h-720zM15480 553.689h720v80h-720zM16120 520h-113"/><path d="M16007 441l-2-1h115"/></g><g fill="#000000"><path d="M16440 335.296h720v80h-720zM16440 440h720v80h-720zM16440 544.704h720v80h-720zM17080 520h-113"/><path d="M16967 441l-2-1h115"/></g><g fill="#000000"><path d="M17400 344.572h720v80h-720zM17400 440h720v80h-720zM17400 535.428h720v80h-720zM18040 520h-113"/><path d="M17927 441l-2-1h115"/></g><g fill="#000000"><path d="M18360 354.131h720v80h-720zM18360 440h720v80h-720zM18360 525.869h720v80h-720zM19000 520h-113"/><path d="M18887 441l-2-1h115"/></g><g fill="#000000"><path d="M19320 363.967h720v80h-720z"/><path d="M19320 440h720v80h-720z"/><path d="M19320 516.033h720v80h-720zM19960 520h-113M19847 441l-2-1h115"/></g><g fill="#000000"><path d="M20280 374.074h720v80h-720z"/><path d="M20280 440h720v80h-720z"/><path d="M20280 505.926h720v80h-720zM20920 520h-113M20807 441l-2-1h115"/></g><g fill="#000000"><path d="M21240 384.45h720v80h-720z"/><path d="M21240 440h720v80h-720z"/><path d="M21240 495.55h720v80h-720zM21880 520h-113M21767 441l-2-1h115"/></g><g fill="#000000"><path d="M22200 395.097h720v80h-720z"/><path d="M22200 440h720v80h-720z"/><path d="M22200 484.903h720v80h-720zM22840 520h-113M22727 441l-2-1h115"/></g><g fill="#000000"><path d="M23160 406.019h720v80h-720z"/><path d="M23160 440h720v80h-720z"/><path d="M23160 473.981h720v80h-720zM23800 520h-113M23687 441l-2-1h115"/></g><g fill="#000000"><path d="M24120 417.232h720v80h-720z"/><path d="M24120 440h720v80h-720z"/><path d="M24120 462.768h720v80h-720zM24760 520h-113M24647 441l-2-1h115"/></g><g fill="#000000"><path d="M25080 428.767h720v80h-720z"/><path d="M25080 440h720v80h-720z"/><path d="M25080 451.233h720v80h-720zM25720 520h-113M25607 441l-2-1h115"/></g><g fill="#000000"><path d="M26040 440h719.932v80H26040z"/><path d="M26040 440h719.932v80H26040z"/><path d="M26040 440h719.932v80H26040zM26680 520h-113"/><path d="M26567 441l-2-1h115"/></g><g fill="#000000"><path d="M27000 440h705.049v80H27000z"/><path d="M27000 440h705.049v80H27000z"/><path d="M27000 440h705.049v80H27000zM27640 520h-113"/><path d="M27527 441l-2-1h115"/></g><g fill="#000000"><path d="M27960 440h674.826v80H27960z"/><path d="M27960 440h674.826v80H27960z"/><path d="M27960 440h674.826v80H27960zM28600 520h-113"/><path d="M28487 441l-2-1h115"/></g><g fill="#000000"><path d="M28920 440h640v80h-640z"/><path d="M28920 440h640v80h-640z"/><path d="M28920 440h640v80h-640zM29559.68 520.32l-4.706 1.706-108.993-2.007.02-.019"/><path d="M29447 441l-2.018-1.018 114.992-.008.026.026"/></g><g fill="#000000"><path d="M29880 440h640v80h-640z"/><path d="M29880 440h640v80h-640z"/><path d="M29880 440h640v80h-640zM30519.684 520.303l-7.267 4.319-108.298-2.741 2.013-1.881"/><path d="M30407 441l-3.454-2.464 114.391-.599L30520 440"/></g><g fill="#000000"><path d="M30840 440h640v80h-640z"/><path d="M30840 440h640v80h-640z"/><path d="M30840 440h640v80h-640zM31479.698 520.247l-15.554 12.776-106.05-5.117 8.463-7.906"/><path d="M31367 441l-6.836-5.871 112.976-1.989 6.86 6.86"/></g><g fill="#000000"><path d="M31800 440h640v80h-640z"/><path d="M31800 440h640v80h-640z"/><path d="M31800 440h640v80h-640z"/><path d="M32439.726 520.131l-32.717 30.29-101.392-10.038 21.818-20.383M32327 441l-11.798-10.867 110.9-4.031L32440 440"/></g><g fill="#000000"><path d="M32760 440h640v80h-640z"/><path d="M32760 440h640v80h-640z"/><path d="M32760 440h640v80h-640z"/><path d="M33399.773 519.937l-61.392 59.553-93.611-18.26 44.134-41.23M33287 441l-18.08-17.194 108.271-6.615L33400 440"/></g><g fill="#000000"><path d="M33720 440h640v80h-640z"/><path d="M33720 440h640v80h-640z"/><path d="M33720 440h640v80h-640z"/><path d="M34359.83 519.703l-96.007 94.877-84.218-28.185 71.071-66.395M34247 441l-25.492-24.659 105.17-9.663L34360 440"/></g><g fill="#000000"><path d="M34680 440h640v80h-640z"/><path d="M34680 440h640v80h-640z"/><path d="M34680 440h640v80h-640z"/><path d="M35319.878 519.502l-125.775 125.255-76.141-36.719L35212.2 520M35207 441l-33.89-33.117 101.655-13.118L35320 440"/></g><g fill="#000000"><path d="M35640 440h640v80h-640z"/><path d="M35640 440h640v80h-640z"/><path d="M35640 440h640v80h-640z"/><path d="M36279.915 519.352l-147.939 147.873-70.127-43.074L36173.335 520M36167 441l-43.164-42.456 97.776-16.932L36280 440"/></g><g fill="#000000"><path d="M36600 440h640v80h-640z"/><path d="M36600 440h640v80h-640z"/><path d="M36600 440h640v80h-640z"/><path d="M37239.941 519.243l-164.086 164.35-65.745-47.703L37134.161 520M37127 441l-53.225-52.588 93.565-21.072L37240 440"/></g><g fill="#000000"><path d="M37560 440h640v80h-640z"/><path d="M37560 440h640v80h-640z"/><path d="M37560 440h640v80h-640z"/><path d="M38199.961 519.163l-175.896 176.401-62.54-51.089L38094.766 520M38087 441l-64.007-63.447 89.053-25.507L38200 440"/></g><g fill="#000000"><path d="M38520 440h640v80h-640z"/><path d="M38520 440h640v80h-640z"/><path d="M38520 440h640v80h-640z"/><path d="M39159.975 519.105l-184.526 185.209-60.199-53.564L39055.208 520M39047 441l-75.458-74.979 84.263-30.216L39160 440"/></g><g fill="#000000"><path d="M39480 440h640v80h-640z"/><path d="M39480 440h640v80h-640z"/><path d="M39480 440h640v80h-640z"/><path d="M40119.985 519.063l-190.748 191.558-58.511-55.347 144.8-135.274M40007 441l-87.538-87.145 79.207-35.186L40120 440"/></g><g fill="#000000"><path d="M40440 440h640v80h-640z"/><path d="M40440 440h640v80h-640z"/><path d="M40440 440h640v80h-640z"/><path d="M41079.992 519.033l-195.085 195.985-57.334-56.591L40975.748 520M40967 441l-100.225-99.922 73.899-40.404L41080 440"/></g><g fill="#000000"><path d="M41400 440h640v80h-640z"/><path d="M41400 440h640v80h-640z"/><path d="M41400 440h640v80h-640z"/><path d="M42039.997 519.014l-197.905 198.862-56.569-57.399L41935.893 520M41927 441l-113.511-113.302 68.339-45.87L42040 440"/></g><g fill="#000000"><path d="M42360 440h640v80h-640z"/><path d="M42360 440h640v80h-640z"/><path d="M42360 440h640v80h-640z"/><path d="M42999.999 519.004l-199.476 200.465-56.142-57.85L42895.973 520M42887 441l-127.42-127.31 62.519-51.591L43000 440"/></g><g fill="#000000"><path d="M43320 440h640v80h-640z"/><path d="M43320 440h640v80h-640z"/><path d="M43320 440h640v80h-640z"/><path d="M43960 519l-199.998 200.998-56.001-57.999L43856 520M43847 441l-142.081-142.075 56.384-57.622L43960 440"/></g><g fill="#000000"><path d="M44280 440h640v80h-640z"/><path d="M44280 440h640v80h-640z"/><path d="M44280 440h640v80h-640z"/><path d="M44920 519l-200 201-56-58 152-142M44807 441l-143-143 56-58 200 200"/></g><g fill="#000000"><path d="M45240 440h640v80h-640z"/><path d="M45240 440h640v80h-640z"/><path d="M45240 440h640v80h-640z"/><path d="M45880 519l-200 201-56-58 152-142M45767 441l-143-143 56-58 200 200"/></g><g fill="#000000"><path d="M46200 440h640v80h-640z"/><path d="M46200 440h640v80h-640z"/><path d="M46200 440h640v80h-640z"/><path d="M46840 519l-200 201-56-58 152-142M46727 441l-143-143 56-58 200 200"/></g><g fill="#000000"><path d="M47160 440h640v80h-640z"/><path d="M47160 440h640v80h-640z"/><path d="M47160 440h640v80h-640z"/><path d="M47800 519l-200 201-56-58 152-142M47687 441l-143-143 56-58 200 200"/></g><g fill="#000000"><path d="M48120 440h640v80h-640z"/><path d="M48120 440h640v80h-640z"/><path d="M48120 440h640v80h-640z"/><path d="M48760 519l-200 201-56-58 152-142M48647 441l-143-143 56-58 200 200"/></g><g fill="#000000"><path d="M49080 440h640v80h-640z"/><path d="M49080 440h640v80h-640z"/><path d="M49080 440h640v80h-640z"/><path d="M49720 519l-200 201-56-58 152-142M49607 441l-143-143 56-58 200 200"/></g><g fill="#000000"><path d="M50040 440h640v80h-640z"/><path d="M50040 440h640v80h-640z"/><path d="M50040 440h640v80h-640z"/><path d="M50680 519l-200 201-56-58 152-142M50567 441l-143-143 56-58 200 200"/></g><g fill="#000000"><path d="M51000 440h640v80h-640z"/><path d="M51000 440h640v80h-640z"/><path d="M51000 440h640v80h-640z"/><path d="M51640 519l-200 201-56-58 152-142M51527 441l-143-143 56-58 200 200"/></g><g fill="#000000"><path d="M51960 440h640v80h-640z"/><path d="M51960 440h640v80h-640z"/><path d="M51960 440h640v80h-640z"/><path d="M52600 519l-200 201-56-58 152-142M52487 441l-143-143 56-58 200 200"/></g><g fill="#000000"><path d="M52920 440h640v80h-640z"/><path d="M52920 440h640v80h-640z"/><path d="M52920 440h640v80h-640z"/><path d="M53560 519l-200 201-56-58 152-142M53447 441l-143-143 56-58 200 200"/></g><g fill="#000000"><path d="M53880 440h640v80h-640z"/><path d="M53880 440h640v80h-640z"/><path d="M53880 440h640v80h-640z"/><path d="M54520 519l-200 201-56-58 152-142M54407 441l-143-143 56-58 200 200"/></g><g fill="#000000"><path d="M54840 440h640v80h-640z"/><path d="M54840 440h640v80h-640z"/><path d="M54840 440h640v80h-640z"/><path d="M55480 519l-200 201-56-58 152-142M55367 441l-143-143 56-58 200 200"/></g><g fill="#000000"><path d="M55800 440h640v80h-640z"/><path d="M55800 440h640v80h-640z"/><path d="M55800 440h640v80h-640z"/><path d="M56440 519l-200 201-56-58 152-142M56327 441l-143-143 56-58 200 200"/></g><g fill="#000000"><path d="M56760 440h640v80h-640z"/><path d="M56760 440h640v80h-640z"/><path d="M56760 440h640v80h-640z"/><path d="M57400 519l-200 201-56-58 152-142M57287 441l-143-143 56-58 200 200"/></g><g fill="#000000"><path d="M57720 440h640v80h-640z"/><path d="M57720 440h640v80h-640z"/><path d="M57720 440h640v80h-640z"/><path d="M58360 519l-200 201-56-58 152-142M58247 441l-143-143 56-58 200 200"/></g></svg>