<svg xmlns="http://www.w3.org/2000/svg" viewBox="0 0 1840 40" width="1840" height="40"><g fill="#ede9e9"><path d="M5 10h30v3H5zM5 18h30v4H5zM5 27h30v3H5zM32 22h-5zM27 18h5"/></g><g fill="#ede9e9"><path d="M45 10.022h30v3.003H45zM45 18h30v4H45zM45 26.975h30v3.003H45zM72 22h-5zM67 18h5"/></g><g fill="#ede9e9"><path d="M85 10.083h30v3.011H85zM85 18h30v4H85zM85 26.906h30v3.011H85zM112 22h-5zM107 18h5"/></g><g fill="#ede9e9"><path d="M125 10.18h30v3.022h-30zM125 18h30v4h-30zM125 26.798h30v3.022h-30zM152 22h-5zM147 18h5"/></g><g fill="#ede9e9"><path d="M165 10.307h30v3.039h-30zM165 18h30v4h-30zM165 26.654h30v3.039h-30zM192 22h-5zM187 18h5"/></g><g fill="#ede9e9"><path d="M205 10.462h30v3.058h-30zM205 18h30v4h-30zM205 26.48h30v3.058h-30zM232 22h-5zM227 18h5"/></g><g fill="#ede9e9"><path d="M245 10.642h30v3.08h-30zM245 18h30v4h-30zM245 26.278h30v3.08h-30zM272 22h-5zM267 18h5"/></g><g fill="#ede9e9"><path d="M285 10.845h30v3.105h-30zM285 18h30v4h-30zM285 26.05h30v3.105h-30zM312 22h-5zM307 18h5"/></g><g fill="#ede9e9"><path d="M325 11.068h30v3.134h-30zM325 18h30v4h-30zM325 25.798h30v3.134h-30zM352 22h-5zM347 18h5"/></g><g fill="#ede9e9"><path d="M365 11.311h30v3.164h-30zM365 18h30v4h-30zM365 25.525h30v3.164h-30zM392 22h-5zM387 18h5"/></g><g fill="#ede9e9"><path d="M405 11.572h30v3.196h-30zM405 18h30v4h-30zM405 25.232h30v3.196h-30zM432 22h-5zM427 18h5"/></g><g fill="#ede9e9"><path d="M445 11.849h30v3.231h-30zM445 18h30v4h-30zM445 24.92h30v3.231h-30zM472 22h-5zM467 18h5"/></g><g fill="#ede9e9"><path d="M485 12.142h30v3.267h-30zM485 18h30v4h-30zM485 24.591h30v3.267h-30zM512 22h-5zM507 18h5"/></g><g fill="#ede9e9"><path d="M525 12.449h30v3.306h-30zM525 18h30v4h-30zM525 24.245h30v3.306h-30zM552 22h-5zM547 18h5"/></g><g fill="#ede9e9"><path d="M565 12.771h30v3.346h-30zM565 18h30v4h-30zM565 23.883h30v3.346h-30zM592 22h-5zM587 18h5"/></g><g fill="#ede9e9"><path d="M605 13.105h30v3.388h-30zM605 18h30v4h-30zM605 23.507h30v3.388h-30zM632 22h-5zM627 18h5"/></g><g fill="#ede9e9"><path d="M645 13.452h30v3.432h-30zM645 18h30v4h-30zM645 23.116h30v3.432h-30zM672 22h-5zM667 18h5"/></g><g fill="#ede9e9"><path d="M685 13.812h30v3.476h-30zM685 18h30v4h-30zM685 22.712h30v3.476h-30zM712 22h-5zM707 18h5"/></g><g fill="#ede9e9"><path d="M725 14.183h30v3.523h-30zM725 18h30v4h-30zM725 22.294h30v3.523h-30zM752 22h-5zM747 18h5"/></g><g fill="#ede9e9"><path d="M765 14.565h30v3.571h-30z"/><path d="M765 18h30v4h-30z"/><path d="M765 21.864h30v3.571h-30zM792 22h-5zM787 18h5"/></g><g fill="#ede9e9"><path d="M805 14.959h30v3.62h-30z"/><path d="M805 18h30v4h-30z"/><path d="M805 21.421h30v3.62h-30zM832 22h-5zM827 18h5"/></g><g fill="#ede9e9"><path d="M845 15.363h30v3.67h-30z"/><path d="M845 18h30v4h-30z"/><path d="M845 20.967h30v3.67h-30zM872 22h-5zM867 18h5"/></g><g fill="#ede9e9"><path d="M885 15.778h30V19.5h-30z"/><path d="M885 18h30v4h-30z"/><path d="M885 20.5h30v3.722h-30zM912 22h-5zM907 18h5"/></g><g fill="#ede9e9"><path d="M925 16.204h30v3.775h-30z"/><path d="M925 18h30v4h-30z"/><path d="M925 20.021h30v3.775h-30zM952 22h-5zM947 18h5"/></g><g fill="#ede9e9"><path d="M965 16.641h30v3.83h-30z"/><path d="M965 18h30v4h-30z"/><path d="M965 19.529h30v3.83h-30zM992 22h-5zM987 18h5"/></g><g fill="#ede9e9"><path d="M1005 17.089h30v3.886h-30z"/><path d="M1005 18h30v4h-30z"/><path d="M1005 19.025h30v3.886h-30zM1032 22h-5zM1027 18h5"/></g><g fill="#ede9e9"><path d="M1045 17.551h30v3.943h-30z"/><path d="M1045 18h30v4h-30z"/><path d="M1045 18.506h30v3.943h-30zM1072 22h-5zM1067 18h5"/></g><g fill="#ede9e9"><path d="M1085 18h29.997v4H1085z"/><path d="M1085 18h29.997v4H1085z"/><path d="M1085 18h29.997v4H1085zM1112 22h-5zM1107 18h5"/></g><g fill="#ede9e9"><path d="M1125 18h29.439v4H1125z"/><path d="M1125 18h29.439v4H1125z"/><path d="M1125 18h29.439v4H1125zM1152 22h-5zM1147 18h5"/></g><g fill="#ede9e9"><path d="M1165 18h28.306v4H1165z"/><path d="M1165 18h28.306v4H1165z"/><path d="M1165 18h28.306v4H1165zM1192 22h-5zM1187 18h5"/></g><g fill="#ede9e9"><path d="M1205 18h27v4h-27z"/><path d="M1205 18h27v4h-27z"/><path d="M1205 18h27v4h-27zM1232 22l-.001.001h-5L1227 22M1227 18l-.001-.001h5L1232 18"/></g><g fill="#ede9e9"><path d="M1245 18h27v4h-27z"/><path d="M1245 18h27v4h-27z"/><path d="M1245 18h27v4h-27z"/><path d="M1272 22l-.093.083-4.969-.021.072-.062M1267 18l-.062-.052 4.969-.031.093.083"/></g><g fill="#ede9e9"><path d="M1285 18h27v4h-27z"/><path d="M1285 18h27v4h-27z"/><path d="M1285 18h27v4h-27zM1312 22l-.309.274-4.897-.068.24-.206M1307 18l-.206-.171 4.897-.103.309.274"/></g><g fill="#ede9e9"><path d="M1325 18h27v4h-27z"/><path d="M1325 18h27v4h-27z"/><path d="M1325 18h27v4h-27zM1352 22l-.625.556-4.792-.139.486-.417M1347 18l-.417-.347 4.792-.209.625.556"/></g><g fill="#ede9e9"><path d="M1365 18h27v4h-27z"/><path d="M1365 18h27v4h-27z"/><path d="M1365 18h27v4h-27z"/><path d="M1392 22l-1.026.912-4.658-.228.798-.684M1387 18l-.684-.57 4.658-.342L1392 18"/></g><g fill="#ede9e9"><path d="M1405 18h27v4h-27z"/><path d="M1405 18h27v4h-27z"/><path d="M1405 18h27v4h-27zM1432 22l-1.5 1.333L1426 23l1.167-1M1427 18l-1-.833 4.5-.5L1432 18"/></g><g fill="#ede9e9"><path d="M1445 18h27v4h-27z"/><path d="M1445 18h27v4h-27z"/><path d="M1445 18h27v4h-27zM1472 22l-2.036 1.809-4.321-.452 1.583-1.357M1467 18l-1.357-1.131 4.321-.678L1472 18"/></g><g fill="#ede9e9"><path d="M1485 18h27v4h-27z"/><path d="M1485 18h27v4h-27z"/><path d="M1485 18h27v4h-27zM1512 22l-2.627 2.336-4.125-.584 2.044-1.752M1507 18l-1.752-1.46 4.125-.876L1512 18"/></g><g fill="#ede9e9"><path d="M1525 18h27v4h-27z"/><path d="M1525 18h27v4h-27z"/><path d="M1525 18h27v4h-27zM1552 22l-3.27 2.906-3.91-.726 2.543-2.18M1547 18l-2.18-1.816 3.91-1.09L1552 18"/></g><g fill="#ede9e9"><path d="M1565 18h27v4h-27z"/><path d="M1565 18h27v4h-27z"/><path d="M1565 18h27v4h-27zM1592 22l-3.958 3.518-3.681-.879L1587.44 22M1587 18l-2.639-2.199 3.681-1.319L1592 18"/></g><g fill="#ede9e9"><path d="M1605 18h27v4h-27z"/><path d="M1605 18h27v4h-27z"/><path d="M1605 18h27v4h-27z"/><path d="M1632 22l-4.689 4.168-3.437-1.042 3.647-3.126M1627 18l-3.126-2.605 3.437-1.563L1632 18"/></g><g fill="#ede9e9"><path d="M1645 18h27v4h-27z"/><path d="M1645 18h27v4h-27z"/><path d="M1645 18h27v4h-27zM1672 22l-5.46 4.853-3.18-1.213 4.247-3.64M1667 18l-3.64-3.033 3.18-1.82L1672 18"/></g><g fill="#ede9e9"><path d="M1685 18h27v4h-27z"/><path d="M1685 18h27v4h-27z"/><path d="M1685 18h27v4h-27zM1712 22l-6.27 5.573-2.91-1.393 4.877-4.18M1707 18l-4.18-3.483 2.91-2.09L1712 18"/></g><g fill="#ede9e9"><path d="M1725 18h27v4h-27z"/><path d="M1725 18h27v4h-27z"/><path d="M1725 18h27v4h-27z"/><path d="M1752 22l-7.118 6.327-2.627-1.582 5.536-4.745M1747 18l-4.745-3.954 2.627-2.373L1752 18"/></g><g fill="#ede9e9"><path d="M1765 18h27v4h-27z"/><path d="M1765 18h27v4h-27z"/><path d="M1765 18h27v4h-27zM1792 22l-8.006 7.116-2.331-1.779L1787.89 22M1787 18l-5.337-4.448 2.331-2.668L1792 18"/></g><g fill="#ede9e9"><path d="M1805 18h27v4h-27z"/><path d="M1805 18h27v4h-27z"/><path d="M1805 18h27v4h-27zM1832 22l-8.941 7.948-2.02-1.987 6.954-5.961M1827 18l-5.961-4.967 2.02-2.981L1832 18"/></g></svg>